<svg width="328" height="290" viewBox="0 0 328 290" fill="none" xmlns="http://www.w3.org/2000/svg">
<g clip-path="url(#clip0_259_469)">
<mask id="mask0_259_469" style="mask-type:luminance" maskUnits="userSpaceOnUse" x="0" y="0" width="327" height="347">
<path d="M326.663 0H0V346.607H326.663V0Z" fill="white"/>
</mask>
<g mask="url(#mask0_259_469)">
<path d="M326.663 0H0V346.607H326.663V0Z" fill="white"/>
<path d="M-9.84961 148.405L128.378 -1.31055L130.793 0.0290725L-5.32372 170.355L-9.84961 148.405Z" fill="black"/>
<path d="M-29.0186 135.957L125.795 -5.61816L128.05 -4.10275L-26.504 155.284L-29.0186 135.957Z" fill="black"/>
<path d="M-22.9834 103.725L127.529 -14.8174L129.632 -13.1609L-21.8624 120.465L-22.9834 103.725Z" fill="black"/>
<path d="M-45.7968 97.1977L115.037 -11.8418L116.985 -10.0617L-46.1953 113.959L-45.7968 97.1977Z" fill="black"/>
<path d="M-71.5991 93.7246L97.1195 -6.97803L98.9296 -5.10285L-73.2559 110.434L-71.5991 93.7246Z" fill="black"/>
<path d="M-92.8908 85.4453L83.446 -6.05273L85.1037 -4.08507L-95.8672 102.031L-92.8908 85.4453Z" fill="black"/>
<path d="M-20.8973 30.9341L73.5405 -11.3177L75.102 -9.29773L-20.8973 41.7422L-20.8973 30.9341Z" fill="black"/>
<path d="M-73.2855 43.3845L56.0763 -11.733L57.0391 -10.2316L-76.8165 55.0573L-73.2855 43.3845Z" fill="black"/>
<path d="M-5.72363 181.494L135.904 -1.03857L138.403 0.193651L-5.72363 208.03V181.494Z" fill="black"/>
<path d="M-5.19141 220.806L144.472 -1.31055L147.051 -0.194528L-5.19138 249.417L-5.19141 220.806Z" fill="black"/>
<path d="M-9.31836 273.114L151.57 -1.31055L154.236 -0.342728L-0.932144 294.955L-9.31836 273.114Z" fill="black"/>
<path d="M-11.9805 337.325L157.58 -1.0918L160.335 -0.309395L9.45096 354.142L-11.9805 337.325Z" fill="black"/>
<path d="M25.0254 347.153L164.113 -1.49365L166.91 -0.818139L47.3886 347.153H25.0254Z" fill="black"/>
<path d="M58.7031 346.607L171.142 -2.18408L173.982 -1.6429L81.3326 346.607H58.7031Z" fill="black"/>
<path d="M94.9111 347.809L176.621 -1.74707L179.51 -1.42541L116.476 347.809H94.9111Z" fill="black"/>
<path d="M128.855 347.59L182.638 -1.50049L185.547 -1.34015L151.219 347.59H128.855Z" fill="black"/>
<path d="M162.666 346.28L188.249 -1.92676L191.164 -1.87481L183.831 346.28H162.666Z" fill="black"/>
<path d="M194.414 347.59V-2.1007L197.327 -2.2041L213.249 347.59H194.414Z" fill="black"/>
<path d="M224.165 346.28L200.072 -2.44422L202.977 -2.65088L246.262 346.28H224.165Z" fill="black"/>
<path d="M256.112 347.263L206.026 -1.07602L209.473 -1.52881L278.076 347.263H256.112Z" fill="black"/>
<path d="M291.255 347.918L211.652 -1.31053L215.304 -1.31055L317.345 347.918H291.255Z" fill="black"/>
<path d="M326.663 348.136L216.977 -4.80518H220.009L327.861 282.506L326.663 348.136Z" fill="black"/>
<path d="M326.53 255.533L223.897 -1.75474L227.686 -2.83936L326.53 214.691V255.533Z" fill="black"/>
<path d="M326.796 202.024L230.021 -2.20573L233.715 -3.49414L326.796 166.643V202.024Z" fill="black"/>
<path d="M326.663 157.142L237.477 -0.886626L241.039 -2.40234L326.663 132.462V157.142Z" fill="black"/>
<path d="M326.663 120.668L243.866 -0.88935L247.835 -2.83936L326.663 103.523V120.668Z" fill="black"/>
<path d="M326.929 97.2988L252.888 -0.631907L257.137 -2.80811L326.929 78.9528V97.2988Z" fill="black"/>
<path d="M326.663 72.4011L261.703 0.0382407L265.734 -2.40234L326.663 61.8085V72.4011Z" fill="black"/>
<path d="M326.796 54.9285L270.223 0.0565944L274.514 -2.96729L326.796 45.1003V54.9285Z" fill="black"/>
<path d="M326.663 39.7498L279.807 -0.659724L284.306 -4.14941L326.663 29.7032V39.7498Z" fill="black"/>
<path d="M326.663 25.6627L291.787 -0.786164L296.523 -4.80469L326.663 17.4725V25.6627Z" fill="black"/>
<path d="M326.53 13.1043L302.569 -4.368L308.08 -6.11523L326.53 6.2246V13.1043Z" fill="black"/>
</g>
<path d="M-5.99151 -2.39613C-5.99151 75.7845 339.879 276.134 326.801 110.831C326.801 110.831 326.801 358.553 326.801 290.856C326.801 223.16 17.6724 78.8257 -5.99151 188.413C-29.6554 298 -5.99151 -80.5768 -5.99151 -2.39613Z" fill="url(#paint0_linear_259_469)"/>
<path d="M7.71299e-06 11.9815L0 0.299316C0 0.299316 113.524 101.496 210.279 108.135C258.04 111.412 317.494 55.9166 326.801 23.6637V103.466C326.801 103.466 314.22 153.066 230.348 147.075C146.476 141.084 7.71299e-06 11.9815 7.71299e-06 11.9815Z" fill="url(#paint1_linear_259_469)"/>
</g>
<defs>
<linearGradient id="paint0_linear_259_469" x1="-279.175" y1="-8.08744" x2="327.1" y2="219.865" gradientUnits="userSpaceOnUse">
<stop stop-color="white"/>
<stop offset="1" stop-color="#27A4FF"/>
</linearGradient>
<linearGradient id="paint1_linear_259_469" x1="-257.907" y1="-17.9728" x2="391.502" y2="84.4709" gradientUnits="userSpaceOnUse">
<stop stop-color="white"/>
<stop offset="1" stop-color="#27A4FF"/>
</linearGradient>
<clipPath id="clip0_259_469">
<rect width="327.101" height="289.958" fill="white"/>
</clipPath>
</defs>
</svg>
