<svg width="125" height="52" viewBox="0 0 125 52" fill="none" xmlns="http://www.w3.org/2000/svg">
<path d="M2.17505 29.5414L1.56829 28.5045C1.19997 28.72 0.973608 29.1147 0.973608 29.5414H2.17505ZM26.0899 29.5414H27.2914V28.8541L26.6989 28.5058L26.0899 29.5414ZM14.1612 22.528L14.7702 21.4923L14.1627 21.1351L13.5545 21.491L14.1612 22.528ZM2.17505 43.5397H0.973608V44.2344L1.57574 44.581L2.17505 43.5397ZM14.1612 50.4382L13.5619 51.4795L14.1627 51.8253L14.7627 51.4783L14.1612 50.4382ZM26.0899 43.5397L26.6914 44.5797L27.2914 44.2328V43.5397H26.0899ZM1.56829 30.5784L13.5545 37.5919L14.768 35.518L2.78181 28.5045L1.56829 30.5784ZM14.7702 37.5906L26.6989 30.5771L25.481 28.5058L13.5523 35.5193L14.7702 37.5906ZM26.6989 28.5058L14.7702 21.4923L13.5523 23.5636L25.481 30.5771L26.6989 28.5058ZM13.5545 21.491L1.56829 28.5045L2.78181 30.5784L14.768 23.5649L13.5545 21.491ZM0.973608 29.5414V43.5397H3.37649V29.5414H0.973608ZM1.57574 44.581L13.5619 51.4795L14.7605 49.3969L2.77435 42.4984L1.57574 44.581ZM14.7627 51.4783L26.6914 44.5797L25.4884 42.4997L13.5598 49.3982L14.7627 51.4783ZM27.2914 43.5397V29.5414H24.8885V43.5397H27.2914ZM12.9598 36.5549V50.4382H15.3627V36.5549H12.9598Z" fill="white"/>
<path d="M14.1831 8.48298L13.5763 7.44601C13.208 7.66153 12.9817 8.05624 12.9817 8.48298H14.1831ZM38.098 8.48298H39.2994V7.79565L38.7069 7.44729L38.098 8.48298ZM26.1693 1.46948L26.7782 0.433791L26.1707 0.0766245L25.5625 0.432516L26.1693 1.46948ZM14.1831 22.4812H12.9817V23.176L13.5838 23.5225L14.1831 22.4812ZM26.1693 29.3797L25.57 30.421L26.1707 30.7668L26.7708 30.4198L26.1693 29.3797ZM38.098 22.4812L38.6994 23.5213L39.2994 23.1743V22.4812H38.098ZM13.5763 9.51995L25.5625 16.5334L26.776 14.4595L14.7899 7.44601L13.5763 9.51995ZM26.7782 16.5322L38.7069 9.51867L37.489 7.44729L25.5603 14.4608L26.7782 16.5322ZM38.7069 7.44729L26.7782 0.433791L25.5603 2.50517L37.489 9.51867L38.7069 7.44729ZM25.5625 0.432516L13.5763 7.44601L14.7899 9.51995L26.776 2.50645L25.5625 0.432516ZM12.9817 8.48298V22.4812H15.3845V8.48298H12.9817ZM13.5838 23.5225L25.57 30.421L26.7686 28.3385L14.7824 21.4399L13.5838 23.5225ZM26.7708 30.4198L38.6994 23.5213L37.4965 21.4412L25.5678 28.3397L26.7708 30.4198ZM39.2994 22.4812V8.48298H36.8965V22.4812H39.2994ZM24.9678 15.4965V29.3797H27.3707V15.4965H24.9678Z" fill="white"/>
<path d="M3.97827 29.6021L13.8607 23.3985L24.0317 29.602L14.1917 35.5979L3.97827 29.6021Z" fill="white"/>
<path d="M26.8451 15.7521L37.6653 9.98132V15.7521V22.1721C37.6653 22.1721 26.7729 28.015 26.8451 27.6543C26.9172 27.2937 26.8451 15.7521 26.8451 15.7521Z" fill="white"/>
<path d="M54.6094 24.5151C55.1368 23.7337 55.8595 23.0988 56.7777 22.6105C57.7153 22.1221 58.7799 21.8779 59.9715 21.8779C61.3585 21.8779 62.6086 22.2198 63.7221 22.9035C64.8551 23.5872 65.7439 24.5639 66.3885 25.8336C67.0527 27.0838 67.3848 28.5391 67.3848 30.1995C67.3848 31.8599 67.0527 33.3348 66.3885 34.624C65.7439 35.8938 64.8551 36.8803 63.7221 37.5835C62.6086 38.2867 61.3585 38.6383 59.9715 38.6383C58.7604 38.6383 57.6958 38.4039 56.7777 37.9351C55.8791 37.4468 55.1563 36.8217 54.6094 36.0598V38.3746H50.5072V16.6916H54.6094V24.5151ZM63.1947 30.1995C63.1947 29.2228 62.9896 28.3828 62.5793 27.6796C62.1887 26.9568 61.6612 26.4099 60.9971 26.0387C60.3524 25.6676 59.6492 25.482 58.8874 25.482C58.1451 25.482 57.4418 25.6773 56.7777 26.068C56.133 26.4392 55.6056 26.9861 55.1954 27.7089C54.8047 28.4317 54.6094 29.2814 54.6094 30.2581C54.6094 31.2348 54.8047 32.0846 55.1954 32.8074C55.6056 33.5301 56.133 34.0869 56.7777 34.4775C57.4418 34.8487 58.1451 35.0343 58.8874 35.0343C59.6492 35.0343 60.3524 34.8389 60.9971 34.4482C61.6612 34.0576 62.1887 33.5008 62.5793 32.7781C62.9896 32.0553 63.1947 31.1958 63.1947 30.1995ZM72.4461 20.2077C71.7234 20.2077 71.1178 19.9831 70.6295 19.5338C70.1606 19.065 69.9262 18.4887 69.9262 17.805C69.9262 17.1213 70.1606 16.5548 70.6295 16.1055C71.1178 15.6367 71.7234 15.4023 72.4461 15.4023C73.1689 15.4023 73.7647 15.6367 74.2335 16.1055C74.7219 16.5548 74.9661 17.1213 74.9661 17.805C74.9661 18.4887 74.7219 19.065 74.2335 19.5338C73.7647 19.9831 73.1689 20.2077 72.4461 20.2077ZM74.4679 22.1416V38.3746H70.3657V22.1416H74.4679ZM83.2971 25.5113V33.3641C83.2971 33.911 83.424 34.3115 83.678 34.5654C83.9515 34.7999 84.4008 34.9171 85.0258 34.9171H86.9304V38.3746H84.3519C80.8943 38.3746 79.1656 36.6947 79.1656 33.3348V25.5113H77.2317V22.1416H79.1656V18.1273H83.2971V22.1416H86.9304V25.5113H83.2971ZM91.9614 20.2077C91.2386 20.2077 90.633 19.9831 90.1447 19.5338C89.6759 19.065 89.4414 18.4887 89.4414 17.805C89.4414 17.1213 89.6759 16.5548 90.1447 16.1055C90.633 15.6367 91.2386 15.4023 91.9614 15.4023C92.6841 15.4023 93.2799 15.6367 93.7488 16.1055C94.2371 16.5548 94.4813 17.1213 94.4813 17.805C94.4813 18.4887 94.2371 19.065 93.7488 19.5338C93.2799 19.9831 92.6841 20.2077 91.9614 20.2077ZM93.9832 22.1416V38.3746H89.881V22.1416H93.9832ZM105.479 25.5113H102.636V38.3746H98.4757V25.5113H96.6297V22.1416H98.4757V21.3212C98.4757 19.3287 99.0422 17.8636 100.175 16.926C101.308 15.9883 103.017 15.5488 105.303 15.6074V19.065C104.307 19.0454 103.613 19.2115 103.223 19.5631C102.832 19.9147 102.636 20.5496 102.636 21.4677V22.1416H105.479V25.5113ZM123.667 22.1416L113.617 46.0516H109.251L112.767 37.9644L106.262 22.1416H110.862L115.052 33.4813L119.301 22.1416H123.667Z" fill="white"/>
</svg>
