<svg width="1390" height="299" viewBox="0 0 1390 299" fill="none" xmlns="http://www.w3.org/2000/svg">
<rect x="78" y="1" width="64" height="64" fill="#27A4FF"/>
<rect x="390" y="1" width="64" height="64" fill="#27A4FF"/>
<rect x="546" y="1" width="64" height="64" fill="#27A4FF"/>
<rect x="156" y="1" width="64" height="64" fill="white"/>
<rect x="468" y="1" width="64" height="64" fill="white"/>
<rect x="312" y="1" width="64" height="64" fill="#27A4FF"/>
<rect y="1" width="64" height="64" fill="#27A4FF"/>
<rect x="234" y="79" width="64" height="64" fill="white"/>
<rect x="156" y="79" width="64" height="64" fill="#27A4FF"/>
<rect x="468" y="79" width="64" height="64" fill="#27A4FF"/>
<rect x="312" y="79" width="64" height="64" fill="white"/>
<rect x="624" y="79" width="64" height="64" fill="#27A4FF"/>
<rect x="78" y="157" width="64" height="64" fill="white"/>
<rect x="390" y="157" width="64" height="64" fill="white"/>
<rect x="546" y="157" width="64" height="64" fill="#27A4FF"/>
<rect x="156" y="157" width="64" height="64" fill="#27A4FF"/>
<rect x="312" y="157" width="64" height="64" fill="#27A4FF"/>
<rect y="157" width="64" height="64" fill="#27A4FF"/>
<rect x="234" y="235" width="64" height="64" fill="white"/>
<rect x="546" y="235" width="64" height="64" fill="#27A4FF"/>
<rect x="156" y="235" width="64" height="64" fill="#27A4FF"/>
<rect x="468" y="235" width="64" height="64" fill="#27A4FF"/>
<rect x="312" y="235" width="64" height="64" fill="#27A4FF"/>
<rect y="235" width="64" height="64" fill="#27A4FF"/>
<rect x="624" y="235" width="64" height="64" fill="#27A4FF"/>
<rect x="1326" width="64" height="64" fill="#27A4FF"/>
<rect x="858" width="64" height="64" fill="white"/>
<rect x="1170" width="64" height="64" fill="#27A4FF"/>
<rect x="780" width="64" height="64" fill="#27A4FF"/>
<rect x="1092" width="64" height="64" fill="#27A4FF"/>
<rect x="936" width="64" height="64" fill="#27A4FF"/>
<rect x="702" y="78" width="64" height="64" fill="white"/>
<rect x="1326" y="78" width="64" height="64" fill="#27A4FF"/>
<rect x="1014" y="78" width="64" height="64" fill="#27A4FF"/>
<rect x="780" y="78" width="64" height="64" fill="#27A4FF"/>
<rect x="1092" y="78" width="64" height="64" fill="white"/>
<rect x="936" y="78" width="64" height="64" fill="white"/>
<rect x="1248" y="78" width="64" height="64" fill="#27A4FF"/>
<rect x="702" y="156" width="64" height="64" fill="#27A4FF"/>
<rect x="1014" y="156" width="64" height="64" fill="#27A4FF"/>
<rect x="858" y="156" width="64" height="64" fill="white"/>
<rect x="780" y="156" width="64" height="64" fill="#27A4FF"/>
<rect x="1092" y="156" width="64" height="64" fill="#27A4FF"/>
<rect x="1248" y="156" width="64" height="64" fill="#27A4FF"/>
<rect x="702" y="234" width="64" height="64" fill="white"/>
<rect x="1326" y="234" width="64" height="64" fill="#27A4FF"/>
<rect x="1014" y="234" width="64" height="64" fill="white"/>
<rect x="858" y="234" width="64" height="64" fill="#27A4FF"/>
<rect x="1170" y="234" width="64" height="64" fill="#27A4FF"/>
<rect x="936" y="234" width="64" height="64" fill="white"/>
<rect x="1248" y="234" width="64" height="64" fill="white"/>
</svg>
