<svg width="1440" height="398" viewBox="0 0 1440 398" fill="none" xmlns="http://www.w3.org/2000/svg">
<path d="M-126.311 173.89C15.7259 117.678 338.446 16.9973 493.03 63.9749C686.261 122.697 659.66 245.662 831.309 192.963C1002.96 140.263 1089.28 -33.8951 1268.96 63.9749C1448.64 161.845 1538.48 315.927 1540.49 325.965M-125.809 178.112C16.2278 121.9 338.948 21.219 493.532 68.1966C686.763 126.919 660.162 249.884 831.811 197.184C1003.46 144.485 1089.79 -29.6734 1269.47 68.1966C1449.15 166.067 1538.98 320.149 1540.99 330.187M-125.809 182.127C16.2278 125.915 338.948 25.2342 493.532 72.2118C686.763 130.934 660.162 253.899 831.811 201.199C1003.46 148.5 1089.79 -25.6582 1269.47 72.2118C1449.15 170.082 1538.98 324.164 1540.99 334.202M-125.809 186.143C16.2278 129.93 338.948 29.2494 493.532 76.227C686.763 134.949 660.162 257.914 831.811 205.215C1003.46 152.515 1089.79 -21.643 1269.47 76.227C1449.15 174.097 1538.98 328.18 1540.99 338.218M-126.813 190.158C15.224 133.945 337.944 33.2645 492.529 80.2422C685.759 138.964 659.159 261.929 830.808 209.23C1002.46 156.531 1088.78 -17.6279 1268.46 80.2422C1448.14 178.112 1537.98 332.195 1539.99 342.233M-126.813 194.173C15.224 137.96 337.944 37.2797 492.529 84.2573C685.759 142.979 659.159 265.944 830.808 213.245C1002.46 160.546 1088.78 -13.6127 1268.46 84.2573C1448.14 182.127 1537.98 336.21 1539.99 346.248M-129.824 201.199C12.2126 144.987 334.933 44.3063 489.517 91.2839C682.748 150.006 656.147 272.971 827.796 220.272C999.445 167.572 1085.77 -6.58612 1265.45 91.2839C1445.13 189.154 1534.97 343.236 1536.98 353.274M-132.836 207.222C9.20121 151.01 331.921 50.3291 486.506 97.3067C679.736 156.029 653.136 278.994 824.785 226.294C996.434 173.595 1082.76 -0.563346 1262.44 97.3067C1442.12 195.177 1531.96 349.259 1533.97 359.297M-135.847 213.245C6.18983 157.032 328.91 56.3518 483.494 103.329C676.725 162.051 650.124 285.016 821.773 232.317C993.422 179.618 1079.75 5.45942 1259.43 103.329C1439.11 201.199 1528.95 355.282 1530.95 365.32M-138.859 220.272C3.17844 164.059 325.899 63.3784 480.483 110.356C673.714 169.078 647.113 292.043 818.762 239.344C990.411 186.644 1076.74 12.486 1256.42 110.356C1436.1 208.226 1525.94 362.309 1527.94 372.347M-142.874 227.298C-0.836736 171.086 321.883 70.405 476.468 117.383C669.698 176.105 643.098 299.069 814.747 246.37C986.396 193.671 1072.72 19.5126 1252.4 117.383C1432.08 215.253 1521.92 369.335 1523.93 379.373M-146.889 234.325C-4.85214 178.112 317.868 77.4315 472.452 124.409C665.683 183.131 639.082 306.096 810.731 253.397C982.38 200.698 1068.71 26.5391 1248.39 124.409C1428.07 222.279 1517.9 376.362 1519.91 386.4M-146.379 237.546C-4.34182 181.333 318.378 80.6524 472.963 127.63C666.193 186.352 639.593 309.317 811.242 256.618C982.891 203.918 1069.22 29.76 1248.9 127.63C1428.58 225.5 1518.42 379.583 1520.42 389.62M-147.301 241.235C-5.26426 185.023 317.456 84.3421 472.04 131.32C665.271 190.042 638.67 313.007 810.319 260.307C981.968 207.608 1068.29 33.4497 1247.97 131.32C1427.65 229.19 1517.49 383.272 1519.5 393.31M-147.301 244.925C-5.26426 188.713 317.456 88.0319 472.04 135.01C665.271 193.732 638.67 316.696 810.319 263.997C981.968 211.298 1068.29 37.1395 1247.97 135.01C1427.65 232.88 1517.49 386.962 1519.5 397M-145.885 230.31C-3.84812 174.097 318.872 73.4164 473.456 120.394C666.687 179.116 640.086 302.081 811.735 249.382C983.384 196.682 1069.71 22.5239 1249.39 120.394C1429.07 218.264 1518.91 372.347 1520.92 382.384M-140.866 223.283C1.17085 167.07 323.891 66.3898 478.475 113.367C671.706 172.089 645.105 295.054 816.754 242.355C988.403 189.656 1074.73 15.4974 1254.41 113.367C1434.09 211.237 1523.93 365.32 1525.94 375.358M-135.847 217.26C6.18983 161.048 328.91 60.367 483.494 107.345C676.725 166.067 650.124 289.032 821.773 236.332C993.422 183.633 1079.75 9.4746 1259.43 107.345C1439.11 205.215 1528.95 359.297 1530.95 369.335M-131.832 211.237C10.205 155.025 332.925 54.3442 487.51 101.322C680.74 160.044 654.14 283.009 825.789 230.31C997.437 177.61 1083.76 3.45183 1263.44 101.322C1443.12 199.192 1532.96 353.274 1534.97 363.312M-129.824 204.211C12.2126 147.998 334.933 47.3177 489.517 94.2953C682.748 153.017 656.147 275.982 827.796 223.283C999.445 170.584 1085.77 -3.57473 1265.45 94.2953C1445.13 192.165 1534.97 346.248 1536.98 356.286M-127.817 198.188C14.2202 141.976 336.94 41.2949 491.525 88.2725C684.755 146.995 658.155 269.959 829.804 217.26C1001.45 164.561 1087.78 -9.5975 1267.46 88.2725C1447.14 186.143 1536.98 340.225 1538.98 350.263M-125.809 169.078C16.2278 112.866 338.948 12.1848 493.532 59.1625C686.763 117.884 660.162 240.849 831.811 188.15C1003.46 135.451 1089.79 -38.7076 1269.47 59.1625C1449.15 157.032 1538.98 311.115 1540.99 321.153M-125.809 164.059C16.2278 107.847 338.948 7.16588 493.532 54.1435C686.763 112.865 660.162 235.83 831.811 183.131C1003.46 130.432 1089.79 -43.7265 1269.47 54.1435C1449.15 152.014 1538.98 306.096 1540.99 316.134M-125.809 160.044C16.2278 103.831 338.948 3.15069 493.532 50.1283C686.763 108.85 660.162 231.815 831.811 179.116C1003.46 126.417 1089.79 -47.7417 1269.47 50.1283C1449.15 147.998 1538.98 302.081 1540.99 312.119M-125.809 156.029C16.2278 99.8162 338.948 -0.864485 493.532 46.1131C686.763 104.835 660.162 227.8 831.811 175.101C1003.46 122.402 1089.79 -51.7569 1269.47 46.1131C1449.15 143.983 1538.98 298.066 1540.99 308.104M-125.809 152.014C16.2278 95.801 338.948 -4.87967 493.532 42.0979C686.763 100.82 660.162 223.785 831.811 171.086C1003.46 118.386 1089.79 -55.7721 1269.47 42.0979C1449.15 139.968 1538.98 294.051 1540.99 304.088M-123.802 149.002C18.2354 92.7896 340.955 -7.89105 495.54 39.0866C688.77 97.8086 662.17 220.773 833.819 168.074C1005.47 115.375 1091.79 -58.7835 1271.47 39.0866C1451.15 136.957 1540.99 291.039 1543 301.077M-123.802 144.987C18.2354 88.7744 340.955 -11.9062 495.54 35.0714C688.77 93.7934 662.17 216.758 833.819 164.059C1005.47 111.36 1091.79 -62.7986 1271.47 35.0714C1451.15 132.941 1540.99 287.024 1543 297.062M-123.802 140.972C18.2354 84.7592 340.955 -15.9214 495.54 31.0562C688.77 89.7782 662.17 212.743 833.819 160.044C1005.47 107.345 1091.79 -66.8138 1271.47 31.0562C1451.15 128.926 1540.99 283.009 1543 293.047" stroke="#00FF19" stroke-width="2.00759"/>
</svg>
