<svg width="1440" height="362" viewBox="0 0 1440 362" fill="none" xmlns="http://www.w3.org/2000/svg">
<path d="M-25.5392 260.319C161.334 271.863 568.206 261.825 700.707 129.324C866.333 -36.3021 1044 44.0015 1147.9 159.94C1251.79 275.878 1350.66 231.711 1446.02 115.271M-26.4616 255.707C160.412 267.251 567.283 257.213 699.784 124.712C865.41 -40.9143 1043.08 39.3893 1146.97 155.328C1250.87 271.266 1349.74 227.099 1445.1 110.659M-26.4616 251.095C160.412 262.639 567.283 252.601 699.784 120.1C865.41 -45.5265 1043.08 34.7771 1146.97 150.715C1250.87 266.654 1349.74 222.487 1445.1 106.047M-26.4616 246.483C160.412 258.026 567.283 247.988 699.784 115.487C865.41 -50.1387 1043.08 30.1649 1146.97 146.103C1250.87 262.042 1349.74 217.875 1445.1 101.434M-25.5392 241.871C161.334 253.414 568.206 243.376 700.707 110.875C866.333 -54.7509 1044 25.5527 1147.9 141.491C1251.79 257.429 1350.66 213.262 1446.02 96.8221M-25.5392 238.181C161.334 249.724 568.206 239.686 700.707 107.185C866.333 -58.4407 1044 21.8629 1147.9 137.801C1251.79 253.74 1350.66 209.573 1446.02 93.1324M-25.5392 234.491C161.334 246.035 568.206 235.997 700.707 103.496C866.333 -62.1305 1044 18.1732 1147.9 134.111C1251.79 250.05 1350.66 205.883 1446.02 89.4426M-25.5392 230.801C161.334 242.345 568.206 232.307 700.707 99.806C866.333 -65.8202 1044 14.4834 1147.9 130.422C1251.79 246.36 1350.66 202.193 1446.02 85.7528M-24.6168 226.189C162.256 237.733 569.128 227.695 701.629 95.1938C867.255 -70.4324 1044.93 9.87119 1148.82 125.81C1252.71 241.748 1351.59 197.581 1446.95 81.1406M-24.6168 264.009C162.256 275.553 569.128 265.515 701.629 133.014C867.255 -32.6123 1044.93 47.6913 1148.82 163.63C1252.71 279.568 1351.59 235.401 1446.95 118.961M-26.4341 269.065C160.439 280.609 567.311 270.571 699.812 138.07C865.438 -27.5563 1043.11 52.7473 1147 168.686C1250.9 284.624 1349.77 240.457 1445.13 124.017M-26.4341 275.088C160.439 286.632 567.311 276.594 699.812 144.093C865.438 -21.5335 1043.11 58.7701 1147 174.708C1250.9 290.647 1349.77 246.48 1445.13 130.04M-26.4341 281.111C160.439 292.654 567.311 282.616 699.812 150.115C865.438 -15.5107 1043.11 64.7929 1147 180.731C1250.9 296.67 1349.77 252.503 1445.13 136.062M-26.4341 286.13C160.439 297.673 567.311 287.635 699.812 155.134C865.438 -10.4917 1043.11 69.8119 1147 185.75C1250.9 301.689 1349.77 257.522 1445.13 141.081M-26.4341 292.152C160.439 303.696 567.311 293.658 699.812 161.157C865.438 -4.46897 1043.11 75.8346 1147 191.773C1250.9 307.711 1349.77 263.544 1445.13 147.104M-26.4341 297.171C160.439 308.715 567.311 298.677 699.812 166.176C865.438 0.550012 1043.11 80.8536 1147 196.792C1250.9 312.73 1349.77 268.563 1445.13 152.123M-26.4341 304.198C160.439 315.742 567.311 305.704 699.812 173.203C865.438 7.57657 1043.11 87.8802 1147 203.818C1250.9 319.757 1349.77 275.59 1445.13 159.15M-26.4341 308.213C160.439 319.757 567.311 309.719 699.812 177.218C865.438 11.5918 1043.11 91.8954 1147 207.834C1250.9 323.772 1349.77 279.605 1445.13 163.165M-26.4341 313.232C160.439 324.776 567.311 314.738 699.812 182.237C865.438 16.6107 1043.11 96.9143 1147 212.853C1250.9 328.791 1349.77 284.624 1445.13 168.184M-26.4341 319.255C160.439 330.799 567.311 320.761 699.812 188.26C865.438 22.6335 1043.11 102.937 1147 218.875C1250.9 334.814 1349.77 290.647 1445.13 174.207M-26.4341 325.278C160.439 336.821 567.311 326.783 699.812 194.282C865.438 28.6563 1043.11 108.96 1147 224.898C1250.9 340.836 1349.77 296.67 1445.13 180.229M-28.4417 332.304C158.432 343.848 565.303 333.81 697.804 201.309C863.43 35.6828 1041.1 115.986 1144.99 231.925C1248.89 347.863 1347.76 303.696 1443.12 187.256M-26.4341 339.331C160.439 350.874 567.311 340.837 699.812 208.336C865.438 42.7094 1043.11 123.013 1147 238.951C1250.9 354.89 1349.77 310.723 1445.13 194.282M-26.4341 346.357C160.439 357.901 567.311 347.863 699.812 215.362C865.438 49.736 1043.11 130.04 1147 245.978C1250.9 361.916 1349.77 317.749 1445.13 201.309M-24.4265 352.38C162.447 363.924 569.318 353.886 701.819 221.385C867.446 55.7587 1045.12 136.062 1149.01 252.001C1252.9 367.939 1351.78 323.772 1447.14 207.332M-22.4189 357.399C164.454 368.943 571.326 358.905 703.827 226.404C869.453 60.7777 1047.12 141.081 1151.02 257.02C1254.91 372.958 1353.78 328.791 1449.14 212.351M-24.4265 357.399C162.447 368.943 569.318 358.905 701.819 226.404C867.446 60.7777 1045.12 141.081 1149.01 257.02C1252.9 372.958 1351.78 328.791 1447.14 212.351" stroke="white" stroke-width="2.00759"/>
</svg>
