<svg width="607" height="515" viewBox="0 0 607 515" fill="none" xmlns="http://www.w3.org/2000/svg">
<path d="M535.543 157L529.571 176M539.343 162.971C539.343 162.971 548.571 166.771 548.571 167.314C548.571 167.857 539.343 171.114 539.343 171.114M525.229 162.971C525.229 162.971 516 166.771 516 167.314C516 167.857 525.229 171.114 525.229 171.114" stroke="white" stroke-width="2.17143" stroke-linecap="round" stroke-linejoin="round"/>
<path d="M26.118 465.541L34.3666 351.829M34.3666 351.829C48.507 356.15 81.7368 362.199 101.533 351.829L108.566 469.626M34.3666 351.829C34.1702 331.993 31.6564 291.497 23.1721 288.197C14.6879 284.898 8.2462 278.574 6.08587 275.825C19.2835 240.474 47.7214 234.778 60.2906 236.349C60.8798 236.349 63.2365 243.42 70.3067 243.42C77.3769 243.42 78.5552 235.171 78.5552 235.171M108.566 469.626L108.603 470.255M108.566 469.626C109.127 479.02 110.959 492.054 97.409 493.233C83.8579 494.411 82.326 484.866 80.9119 470.255L68.5392 390.126C68.5392 390.126 55.5774 458.471 53.2205 470.255C50.8637 482.038 49.6853 492.644 36.1343 490.876C22.5832 489.108 24.9397 479.682 26.1182 464.952M30.8315 489.698C30.8315 489.698 30.7687 490.702 30.889 492.054M30.889 492.054C31.1372 494.847 32.1651 499.125 36.1341 499.125C39.6482 499.125 41.2759 496.19 42.0174 493.822M30.889 492.054C27.5503 494.215 20.2262 499.007 20.2262 500.892C20.2262 503.249 38.4909 507.373 44.9719 504.427C44.7698 501.481 43.896 495.236 42.0174 493.822M42.0174 493.822C42.5191 492.219 42.6151 490.876 42.6151 490.876M91.5172 493.233C91.5172 493.233 90.928 497.946 96.2307 498.535C101.533 499.125 102.712 492.054 102.712 492.054C105.461 493.626 111.432 497.593 113.317 500.892C115.202 504.192 98.3911 505.016 89.7497 505.016C89.7497 501.088 89.9854 493.233 90.9281 493.233M101.62 351.829C102.799 351.633 105.391 349.944 106.334 344.759C107.512 338.278 96.3177 314.121 97.4961 301.749M97.409 302.338C97.0162 292.125 99.5301 268.872 112.728 257.56C129.225 243.42 122.744 233.993 120.387 231.636C118.03 229.279 115.084 220.442 88.5713 232.814C87.3929 233.404 77.966 235.76 77.966 235.76M111.549 225.744C118.227 215.925 131.464 192.161 130.992 175.664M123.333 237.528C129.814 226.53 142.894 200.292 143.365 183.323M130.992 176.842C130.403 174.289 129.578 168.24 130.992 164.469C131.189 163.88 131.699 162.702 132.171 162.702C132.76 162.702 132.996 150.918 133.938 150.918C138.063 150.918 137.473 163.291 137.473 163.291C139.241 163.291 142.187 166.237 142.187 166.237C146.429 170.479 144.544 179.788 143.365 183.912M6.67505 277.592C-0.00234655 286.626 -4.63724 313.768 30.2423 350.062M20.2261 287.019C16.691 295.857 16.3375 317.421 33.7773 328.262M29.653 349.445C28.4747 351.802 32.3632 359.842 29.0638 365.969C25.7644 372.097 30.8314 366.951 33.7773 363.613M77.966 236.349L74.4309 229.868M70.8959 229.868C73.6454 230.065 79.9693 228.926 83.2687 222.798C87.3929 215.139 81.5011 200.999 77.966 200.999M60.8798 236.349C61.8617 235.564 63.8257 233.404 63.8257 231.047M100.944 114.389H402.605M100.944 120.281V228.101M100.944 277.592C100.944 277.592 100.944 299.392 119.798 299.392H383.751C402.605 299.392 402.605 280.538 402.605 280.538V264.041M402.605 264.041C388.129 258.905 371.063 238.224 364.312 229.278M402.605 264.041C402.605 264.041 420.634 269.815 424.405 269.344M100.944 120.87V110.854C100.944 92 119.798 92 119.798 92H383.751C390.036 92 402.605 95.7708 402.605 110.854V246.366M402.605 246.366C393.571 242.045 374.56 229.397 370.789 213.371C370.004 210.622 366.901 204.652 360.773 202.766C354.646 200.881 350.757 197.267 349.579 195.696L348.99 197.464L354.881 205.712C353.899 207.872 352.407 212.664 354.292 214.55C356.649 216.907 360.773 222.209 363.13 222.798C363.414 222.869 363.774 222.879 364.187 222.84M402.605 246.366C409.675 249.115 418.984 254.261 425.583 252.847M364.187 222.84C366.515 222.618 370.556 220.853 372.557 219.852M364.187 222.84C364.229 222.825 364.269 222.811 364.308 222.798M364.187 222.84C362.984 223.259 360.907 224.244 361.362 225.155C361.485 225.399 362.545 226.937 364.312 229.278M364.312 229.278L364.308 229.279M364.312 229.278C367.652 228.099 374.56 225.508 375.503 224.566M446.799 244.598C433.831 244.598 428.529 246.955 425.583 251.079C423.816 253.436 422.402 324.02 426.172 340.046C426.761 342.402 467.297 342.638 471.539 338.867C475.781 335.096 472.718 289.376 472.128 287.019M446.794 244.598C446.794 244.598 480.495 242.595 485.68 255.793C489.804 280.931 497.581 332.858 495.696 339.456C495.696 339.456 495.107 341.224 489.804 341.224C484.501 341.224 483.323 341.813 482.734 339.456C477.824 316.086 468.122 268.99 468.593 267.576M481.555 335.332L495.696 334.743M426.761 340.635C426.761 383.449 427.704 472.376 431.475 485.573M470.361 340.635C474.289 383.449 480.966 471.315 476.253 480.271C473.896 484.395 461.759 483.217 460.345 480.86C458.931 478.503 455.435 462.203 453.864 454.347M449.15 484.984C455.239 446.687 467.179 369.269 466.237 365.969M431.475 484.984C431.475 484.984 430.973 485.987 433.242 486.685M433.242 486.685C434.451 487.056 436.447 487.341 439.723 487.341C441.836 487.341 443.474 487.252 444.746 487.101M433.242 486.685C433.242 486.685 433.832 495.59 438.545 496.179C443.259 496.768 444.746 487.101 444.746 487.101M444.746 487.101C449.15 486.579 449.15 485.309 449.15 484.395M464.469 482.628C464.469 482.628 463.291 493.822 469.772 494.411C476.253 495 475.074 481.449 475.074 481.449M475.664 486.162C475.664 486.162 479.199 486.162 479.788 487.341C480.377 488.519 479.199 496.768 480.377 499.714C481.555 502.66 483.323 505.605 483.323 507.962C483.323 510.319 480.377 510.319 480.377 510.319L452.686 511.497C452.686 511.497 453.864 510.319 454.453 507.962C455.042 505.605 449.74 495 449.74 495M449.74 495C449.74 495 454.453 489.109 458.577 487.341C462.702 485.573 464.469 486.162 464.469 486.162M449.74 495C448.561 493.036 445.969 488.873 445.026 487.93M452.096 511.497C437.759 512.283 408.497 513.618 406.14 512.676C406.14 512.676 394.356 512.676 396.713 507.373C399.07 502.07 408.497 500.892 408.497 500.892C412.425 499.125 421.459 494.529 426.172 490.287C430.886 486.045 432.85 486.555 433.243 487.341M484.501 341.813C484.501 341.813 481.555 345.348 480.966 346.526C480.377 347.705 485.68 347.705 484.501 349.472C483.323 351.24 483.323 354.775 483.912 355.953C484.501 357.132 495.696 356.543 496.563 355.953C497.43 355.364 497.463 350.062 497.463 347.116C497.463 344.17 494.517 340.635 494.517 340.635M431.921 214.005C431.083 224.691 432.453 231.054 438.847 235.849C445.24 240.644 456.762 234.913 458.027 229.456C462.29 212.94 458.026 214.22 458.027 212.939M441.491 244.009C441.884 242.634 443.141 238.942 442.669 237.528M455.042 244.009C454.06 242.241 452.921 236.467 453.864 234.582M430.371 208.459C430.137 202.39 434.777 192.161 445.832 192.161C457.02 192.161 461.638 202.461 461.283 208.677C461.283 208.677 465.545 211.874 465.012 212.407C464.479 212.94 462.881 213.472 462.881 213.472H428.783C427.717 213.472 424.521 212.94 425.053 212.407C425.572 211.889 430.121 209.566 430.371 208.459ZM430.371 208.459C430.373 208.532 430.377 208.605 430.381 208.677M430.371 208.459C430.378 208.427 430.381 208.397 430.381 208.368M444.707 213.472C448.969 215.071 458.559 218.8 458.559 227.325M59.7014 231.046C63.0401 231.439 70.071 231.753 71.4851 229.867C73.2526 227.511 77.3769 209.246 74.431 205.122C71.4851 200.998 80.3227 200.999 81.5011 199.231C82.6794 197.463 79.7335 191.571 79.7335 191.571C79.7335 191.571 75.9788 189.413 72.0742 191.571C69.4448 193.024 50.2745 198.052 49.6853 205.122C49.0961 212.192 47.9178 213.37 59.7014 231.046Z" stroke="white" stroke-width="2.35673"/>
<circle cx="123.333" cy="102.605" r="3.53509" fill="white"/>
<circle cx="137.473" cy="102.605" r="3.53509" fill="white"/>
<circle cx="151.614" cy="102.605" r="3.53509" fill="white"/>
<path d="M195 242.765L194.393 241.728C194.025 241.944 193.799 242.338 193.799 242.765H195ZM218.915 242.765H220.116V242.078L219.524 241.73L218.915 242.765ZM206.986 235.752L207.595 234.716L206.988 234.359L206.379 234.715L206.986 235.752ZM195 256.763H193.799V257.458L194.401 257.805L195 256.763ZM206.986 263.662L206.387 264.703L206.988 265.049L207.588 264.702L206.986 263.662ZM218.915 256.763L219.516 257.803L220.116 257.457V256.763H218.915ZM194.393 243.802L206.379 250.816L207.593 248.742L195.607 241.728L194.393 243.802ZM207.595 250.814L219.524 243.801L218.306 241.73L206.377 248.743L207.595 250.814ZM219.524 241.73L207.595 234.716L206.377 236.787L218.306 243.801L219.524 241.73ZM206.379 234.715L194.393 241.728L195.607 243.802L207.593 236.789L206.379 234.715ZM193.799 242.765V256.763H196.201V242.765H193.799ZM194.401 257.805L206.387 264.703L207.585 262.621L195.599 255.722L194.401 257.805ZM207.588 264.702L219.516 257.803L218.313 255.723L206.385 262.622L207.588 264.702ZM220.116 256.763V242.765H217.713V256.763H220.116ZM205.785 249.779V263.662H208.188V249.779H205.785Z" fill="white"/>
<path d="M183 263.765L182.393 262.728C182.025 262.944 181.799 263.339 181.799 263.765H183ZM206.915 263.765H208.116V263.078L207.524 262.73L206.915 263.765ZM194.986 256.752L195.595 255.716L194.988 255.359L194.379 255.715L194.986 256.752ZM183 277.764H181.799V278.458L182.401 278.805L183 277.764ZM194.986 284.662L194.387 285.703L194.988 286.049L195.588 285.702L194.986 284.662ZM206.915 277.764L207.516 278.804L208.116 278.457V277.764H206.915ZM182.393 264.802L194.379 271.816L195.593 269.742L183.607 262.728L182.393 264.802ZM195.595 271.814L207.524 264.801L206.306 262.73L194.377 269.743L195.595 271.814ZM207.524 262.73L195.595 255.716L194.377 257.787L206.306 264.801L207.524 262.73ZM194.379 255.715L182.393 262.728L183.607 264.802L195.593 257.789L194.379 255.715ZM181.799 263.765V277.764H184.201V263.765H181.799ZM182.401 278.805L194.387 285.703L195.585 283.621L183.599 276.722L182.401 278.805ZM195.588 285.702L207.516 278.804L206.313 276.723L194.385 283.622L195.588 285.702ZM208.116 277.764V263.765H205.713V277.764H208.116ZM193.785 270.779V284.662H196.188V270.779H193.785Z" fill="#27A4FF"/>
<path d="M195 256.765L194.393 255.728C194.025 255.944 193.799 256.338 193.799 256.765H195ZM218.915 256.765H220.116V256.078L219.524 255.73L218.915 256.765ZM206.986 249.752L207.595 248.716L206.988 248.359L206.379 248.715L206.986 249.752ZM195 270.763H193.799V271.458L194.401 271.805L195 270.763ZM206.986 277.662L206.387 278.703L206.988 279.049L207.588 278.702L206.986 277.662ZM218.915 270.763L219.516 271.803L220.116 271.457V270.763H218.915ZM194.393 257.802L206.379 264.816L207.593 262.742L195.607 255.728L194.393 257.802ZM207.595 264.814L219.524 257.801L218.306 255.73L206.377 262.743L207.595 264.814ZM219.524 255.73L207.595 248.716L206.377 250.787L218.306 257.801L219.524 255.73ZM206.379 248.715L194.393 255.728L195.607 257.802L207.593 250.789L206.379 248.715ZM193.799 256.765V270.763H196.201V256.765H193.799ZM194.401 271.805L206.387 278.703L207.585 276.621L195.599 269.722L194.401 271.805ZM207.588 278.702L219.516 271.803L218.313 269.723L206.385 276.622L207.588 278.702ZM220.116 270.763V256.765H217.713V270.763H220.116ZM205.785 263.779V277.662H208.188V263.779H205.785Z" fill="#27A4FF"/>
<path d="M207 249.765L206.393 248.728C206.025 248.944 205.799 249.338 205.799 249.765H207ZM230.915 249.765H232.116V249.078L231.524 248.73L230.915 249.765ZM218.986 242.752L219.595 241.716L218.988 241.359L218.379 241.715L218.986 242.752ZM207 263.763H205.799V264.458L206.401 264.805L207 263.763ZM218.986 270.662L218.387 271.703L218.988 272.049L219.588 271.702L218.986 270.662ZM230.915 263.763L231.516 264.803L232.116 264.457V263.763H230.915ZM206.393 250.802L218.379 257.816L219.593 255.742L207.607 248.728L206.393 250.802ZM219.595 257.814L231.524 250.801L230.306 248.73L218.377 255.743L219.595 257.814ZM231.524 248.73L219.595 241.716L218.377 243.787L230.306 250.801L231.524 248.73ZM218.379 241.715L206.393 248.728L207.607 250.802L219.593 243.789L218.379 241.715ZM205.799 249.765V263.763H208.201V249.765H205.799ZM206.401 264.805L218.387 271.703L219.585 269.621L207.599 262.722L206.401 264.805ZM219.588 271.702L231.516 264.803L230.313 262.723L218.385 269.622L219.588 271.702ZM232.116 263.763V249.765H229.713V263.763H232.116ZM217.785 256.779V270.662H220.188V256.779H217.785Z" fill="#27A4FF"/>
<path d="M264 253.013L263.393 251.977C263.025 252.192 262.799 252.587 262.799 253.013H264ZM287.915 253.013H289.116V252.326L288.524 251.978L287.915 253.013ZM275.986 246L276.595 244.964L275.988 244.607L275.379 244.963L275.986 246ZM264 267.012H262.799V267.706L263.401 268.053L264 267.012ZM275.986 273.91L275.387 274.952L275.988 275.297L276.588 274.95L275.986 273.91ZM287.915 267.012L288.516 268.052L289.116 267.705V267.012H287.915ZM263.393 254.05L275.379 261.064L276.593 258.99L264.607 251.977L263.393 254.05ZM276.595 261.063L288.524 254.049L287.306 251.978L275.377 258.991L276.595 261.063ZM288.524 251.978L276.595 244.964L275.377 247.036L287.306 254.049L288.524 251.978ZM275.379 244.963L263.393 251.977L264.607 254.05L276.593 247.037L275.379 244.963ZM262.799 253.013V267.012H265.201V253.013H262.799ZM263.401 268.053L275.387 274.952L276.585 272.869L264.599 265.97L263.401 268.053ZM276.588 274.95L288.516 268.052L287.313 265.972L275.385 272.87L276.588 274.95ZM289.116 267.012V253.013H286.713V267.012H289.116ZM274.785 260.027V273.91H277.188V260.027H274.785Z" fill="#27A4FF"/>
<path d="M326.549 215.895L327.54 216.574C327.781 216.222 327.817 215.768 327.635 215.382L326.549 215.895ZM304.924 226.109L303.838 226.622L304.132 227.243L304.816 227.305L304.924 226.109ZM318.706 227.356L318.598 228.552L319.299 228.616L319.697 228.034L318.706 227.356ZM320.57 203.238L321.657 202.725L321.36 202.096L320.668 202.04L320.57 203.238ZM306.786 202.119L306.883 200.921L306.193 200.865L305.798 201.435L306.786 202.119ZM298.946 213.451L297.958 212.768L297.564 213.337L297.86 213.964L298.946 213.451ZM326.654 214.698L312.821 213.476L312.61 215.869L326.443 217.092L326.654 214.698ZM311.722 213.996L303.931 225.432L305.917 226.785L313.708 215.349L311.722 213.996ZM304.816 227.305L318.598 228.552L318.814 226.159L305.033 224.912L304.816 227.305ZM319.697 228.034L327.54 216.574L325.557 215.217L317.714 226.677L319.697 228.034ZM327.635 215.382L321.657 202.725L319.484 203.751L325.462 216.408L327.635 215.382ZM320.668 202.04L306.883 200.921L306.689 203.316L320.473 204.435L320.668 202.04ZM305.798 201.435L297.958 212.768L299.934 214.135L307.774 202.802L305.798 201.435ZM297.86 213.964L303.838 226.622L306.011 225.595L300.033 212.938L297.86 213.964ZM313.802 214.159L307.873 201.606L305.7 202.632L311.629 215.186L313.802 214.159Z" fill="white"/>
<path d="M237.089 203.315L236.994 202.118C236.568 202.152 236.193 202.409 236.007 202.793L237.089 203.315ZM258.623 213.717L259.705 214.24L260.004 213.621L259.622 213.049L258.623 213.717ZM250.932 202.213L251.931 201.546L251.54 200.96L250.837 201.016L250.932 202.213ZM231 215.92L229.919 215.398L229.616 216.023L230.008 216.597L231 215.92ZM238.793 227.345L237.801 228.022L238.191 228.595L238.882 228.543L238.793 227.345ZM252.535 226.322L252.624 227.52L253.315 227.468L253.617 226.844L252.535 226.322ZM236.092 203.985L243.834 215.514L245.829 214.174L238.086 202.646L236.092 203.985ZM244.929 216.041L258.721 214.914L258.525 212.52L244.734 213.647L244.929 216.041ZM259.622 213.049L251.931 201.546L249.934 202.881L257.624 214.385L259.622 213.049ZM250.837 201.016L236.994 202.118L237.184 204.513L251.028 203.411L250.837 201.016ZM236.007 202.793L229.919 215.398L232.082 216.443L238.171 203.838L236.007 202.793ZM230.008 216.597L237.801 228.022L239.786 226.668L231.993 215.243L230.008 216.597ZM238.882 228.543L252.624 227.52L252.446 225.124L238.704 226.147L238.882 228.543ZM253.617 226.844L259.705 214.24L257.541 213.194L251.453 225.799L253.617 226.844ZM243.75 214.321L237.711 226.823L239.875 227.868L245.913 215.367L243.75 214.321Z" fill="white"/>
<path d="M183.831 229.378L183.63 230.563C184.051 230.634 184.478 230.477 184.752 230.15L183.831 229.378ZM165.506 214.012L164.586 213.24L164.144 213.767L164.374 214.414L165.506 214.012ZM170.14 227.051L169.008 227.453L169.244 228.117L169.939 228.235L170.14 227.051ZM192.826 218.652L193.746 219.424L194.193 218.892L193.954 218.24L192.826 218.652ZM188.074 205.665L189.202 205.252L188.964 204.601L188.281 204.481L188.074 205.665ZM174.501 203.286L174.708 202.103L174.026 201.983L173.58 202.514L174.501 203.286ZM184.962 228.974L180.284 215.898L178.022 216.707L182.7 229.783L184.962 228.974ZM179.352 215.118L165.705 212.827L165.308 215.197L178.954 217.488L179.352 215.118ZM164.374 214.414L169.008 227.453L171.272 226.649L166.639 213.61L164.374 214.414ZM169.939 228.235L183.63 230.563L184.033 228.194L170.342 225.866L169.939 228.235ZM184.752 230.15L193.746 219.424L191.905 217.88L182.911 228.606L184.752 230.15ZM193.954 218.24L189.202 205.252L186.946 206.078L191.697 219.065L193.954 218.24ZM188.281 204.481L174.708 202.103L174.294 204.469L187.866 206.848L188.281 204.481ZM173.58 202.514L164.586 213.24L166.427 214.784L175.422 204.058L173.58 202.514ZM180.074 217.075L188.994 206.437L187.153 204.893L178.233 215.531L180.074 217.075Z" fill="#27A4FF"/>
<path d="M171 270.765L170.393 269.728C170.025 269.944 169.799 270.339 169.799 270.765H171ZM194.915 270.765H196.116V270.078L195.524 269.73L194.915 270.765ZM182.986 263.752L183.595 262.716L182.988 262.359L182.379 262.715L182.986 263.752ZM171 284.764H169.799V285.458L170.401 285.805L171 284.764ZM182.986 291.662L182.387 292.703L182.988 293.049L183.588 292.702L182.986 291.662ZM194.915 284.764L195.516 285.804L196.116 285.457V284.764H194.915ZM170.393 271.802L182.379 278.816L183.593 276.742L171.607 269.728L170.393 271.802ZM183.595 278.814L195.524 271.801L194.306 269.73L182.377 276.743L183.595 278.814ZM195.524 269.73L183.595 262.716L182.377 264.787L194.306 271.801L195.524 269.73ZM182.379 262.715L170.393 269.728L171.607 271.802L183.593 264.789L182.379 262.715ZM169.799 270.765V284.764H172.201V270.765H169.799ZM170.401 285.805L182.387 292.703L183.585 290.621L171.599 283.722L170.401 285.805ZM183.588 292.702L195.516 285.804L194.313 283.723L182.385 290.622L183.588 292.702ZM196.116 284.764V270.765H193.713V284.764H196.116ZM181.785 277.779V291.662H184.188V277.779H181.785Z" fill="white"/>
<path d="M172.803 270.826L182.686 264.622L192.857 270.826L183.017 276.822L172.803 270.826Z" fill="white"/>
<path d="M184.803 263.826L194.686 257.622L204.857 263.826L195.017 269.822L184.803 263.826Z" fill="#27A4FF"/>
<path d="M196.803 256.826L206.686 250.622L216.857 256.826L207.017 262.822L196.803 256.826Z" fill="#27A4FF"/>
<path d="M208.803 249.826L218.686 243.622L228.857 249.826L219.017 255.822L208.803 249.826Z" fill="#27A4FF"/>
<path d="M196.803 242.826L206.686 236.622L216.857 242.826L207.017 248.822L196.803 242.826Z" fill="white"/>
<path d="M276.662 260.283L287.482 254.512V260.283V266.703C287.482 266.703 276.59 272.546 276.662 272.185C276.734 271.824 276.662 260.283 276.662 260.283Z" fill="#27A4FF"/>
<path d="M311.995 214.73L304.676 224.569L302.211 219.351L299.469 213.546C299.469 213.546 306.823 203.611 306.912 203.968C307.001 204.325 311.995 214.73 311.995 214.73Z" fill="white"/>
<path d="M245.329 215.368L257.582 214.878L255.072 220.074L252.28 225.855C252.28 225.855 239.93 226.379 240.152 226.086C240.374 225.792 245.329 215.368 245.329 215.368Z" fill="white"/>
<path d="M168.8 227.673L156.801 225.142L160.509 220.72L164.634 215.801C164.634 215.801 176.734 218.323 176.447 218.553C176.16 218.783 168.8 227.673 168.8 227.673Z" fill="white"/>
<path d="M178.8 215.673L166.801 213.142L170.509 208.72L174.634 203.801C174.634 203.801 186.734 206.323 186.447 206.553C186.16 206.783 178.8 215.673 178.8 215.673Z" fill="#27A4FF"/>
<path d="M173.831 241.378L173.63 242.563C174.051 242.634 174.478 242.477 174.752 242.15L173.831 241.378ZM155.506 226.012L154.586 225.24L154.144 225.767L154.374 226.414L155.506 226.012ZM160.14 239.051L159.008 239.453L159.244 240.117L159.939 240.235L160.14 239.051ZM182.826 230.652L183.746 231.424L184.193 230.892L183.954 230.24L182.826 230.652ZM178.074 217.665L179.202 217.252L178.964 216.601L178.281 216.481L178.074 217.665ZM164.501 215.286L164.708 214.103L164.026 213.983L163.58 214.514L164.501 215.286ZM174.962 240.974L170.284 227.898L168.022 228.707L172.7 241.783L174.962 240.974ZM169.352 227.118L155.705 224.827L155.308 227.197L168.954 229.488L169.352 227.118ZM154.374 226.414L159.008 239.453L161.272 238.649L156.639 225.61L154.374 226.414ZM159.939 240.235L173.63 242.563L174.033 240.194L160.342 237.866L159.939 240.235ZM174.752 242.15L183.746 231.424L181.905 229.88L172.911 240.606L174.752 242.15ZM183.954 230.24L179.202 217.252L176.946 218.078L181.697 231.065L183.954 230.24ZM178.281 216.481L164.708 214.103L164.294 216.469L177.866 218.848L178.281 216.481ZM163.58 214.514L154.586 225.24L156.427 226.784L165.422 216.058L163.58 214.514ZM170.074 229.075L178.994 218.437L177.153 216.893L168.233 227.531L170.074 229.075Z" fill="white"/>
<rect x="167" y="136" width="186" height="1" rx="0.5" fill="white"/>
<rect x="167" y="149" width="176" height="1" rx="0.5" fill="white"/>
<rect x="167" y="162" width="168" height="1" rx="0.5" fill="white"/>
<rect x="167" y="175" width="161" height="1" rx="0.5" fill="white"/>
<path d="M601.556 92.6667L595.517 98.7048C595.297 98.9248 595.187 99.0348 595.061 99.076C594.949 99.1123 594.829 99.1123 594.717 99.076C594.59 99.0348 594.48 98.9248 594.26 98.7048L592.184 96.6285C591.964 96.4085 591.854 96.2985 591.727 96.2573C591.616 96.2211 591.495 96.2211 591.384 96.2573C591.257 96.2985 591.147 96.4085 590.927 96.6285L586 101.556M601.556 92.6667H597.111M601.556 92.6667V97.1111M591.333 106H600.667C602.534 106 603.467 106 604.18 105.637C604.807 105.317 605.317 104.807 605.637 104.18C606 103.467 606 102.534 606 100.667V91.3333C606 89.4665 606 88.5331 605.637 87.82C605.317 87.1928 604.807 86.6829 604.18 86.3633C603.467 86 602.534 86 600.667 86H591.333C589.466 86 588.533 86 587.82 86.3633C587.193 86.6829 586.683 87.1928 586.363 87.82C586 88.5331 586 89.4665 586 91.3333V100.667C586 102.534 586 103.467 586.363 104.18C586.683 104.807 587.193 105.317 587.82 105.637C588.533 106 589.466 106 591.333 106Z" stroke="white" stroke-width="1.73103" stroke-linecap="round" stroke-linejoin="round"/>
<path d="M521.551 36.8334L526.167 41.4485M520.299 48.7477C518.629 50.4175 515.443 50.0001 513 50.0001C514.252 47.5568 512.583 44.3707 514.252 42.7009C515.922 41.0311 518.629 41.0311 520.299 42.7009C521.969 44.3707 521.969 47.0779 520.299 48.7477ZM525.121 42.5781L536.283 30.5228C537.266 29.461 537.234 27.812 536.211 26.7888C535.188 25.7656 533.539 25.7338 532.477 26.717L520.422 37.8793C519.799 38.4561 519.487 38.7445 519.306 39.0521C518.87 39.7897 518.853 40.7016 519.26 41.4553C519.429 41.7697 519.729 42.0699 520.33 42.6702C520.93 43.2705 521.23 43.5707 521.545 43.7404C522.298 44.1473 523.21 44.1298 523.948 43.6942C524.255 43.5125 524.544 43.2011 525.121 42.5781Z" stroke="white" stroke-width="1.94323" stroke-linecap="round" stroke-linejoin="round"/>
<path d="M456.829 86C450.858 86 446 90.858 446 96.8293C446 99.276 446.801 101.586 448.318 103.51C448.608 103.879 448.921 104.242 449.224 104.593C450.127 105.641 450.98 106.632 451.284 107.745C451.291 107.769 451.348 108.003 451.339 108.799L451.338 108.914C451.329 109.561 451.316 110.445 451.971 111.109C452.419 111.563 453.047 111.784 453.891 111.784H459.748C460.659 111.784 461.314 111.561 461.751 111.103C462.342 110.482 462.302 109.68 462.276 109.15C462.271 109.056 462.266 108.961 462.265 108.867C462.255 108.07 462.315 107.846 462.318 107.836C462.626 106.723 463.625 105.548 464.507 104.512C464.801 104.167 465.079 103.84 465.338 103.512C466.855 101.588 467.657 99.2771 467.657 96.8294C467.657 90.8582 462.8 86 456.829 86ZM463.625 102.161C463.392 102.457 463.127 102.769 462.846 103.098C461.818 104.306 460.653 105.676 460.216 107.254C460.153 107.478 460.072 107.893 460.084 108.893C460.085 109.014 460.091 109.137 460.097 109.258C460.102 109.353 460.108 109.479 460.108 109.579C460.031 109.591 459.915 109.603 459.748 109.603H453.891C453.705 109.603 453.597 109.583 453.541 109.568C453.512 109.426 453.516 109.131 453.519 108.945L453.521 108.822C453.531 107.816 453.451 107.399 453.389 107.172C452.956 105.582 451.851 104.3 450.877 103.169C450.576 102.82 450.292 102.491 450.031 102.16C448.821 100.624 448.182 98.7811 448.182 96.8291C448.182 92.0607 452.061 88.1813 456.83 88.1813C461.597 88.1813 465.476 92.0607 465.476 96.8291C465.476 98.7821 464.836 100.626 463.625 102.161Z" fill="white"/>
<path d="M459.522 112.77H454.136C452.973 112.77 452.027 113.716 452.027 114.879V116.496C452.027 117.658 452.973 118.604 454.136 118.604H459.522C460.685 118.604 461.631 117.658 461.631 116.496V114.879C461.631 113.716 460.685 112.77 459.522 112.77ZM459.45 116.423H454.208V114.952H459.45V116.423Z" fill="white"/>
<path d="M467 77.5C467.667 67.3333 475.8 46.6 503 45" stroke="#27A4FF" stroke-width="3.66667" stroke-linecap="round" stroke-linejoin="round"/>
<path d="M543 45C554.167 44 577.3 48.2 580.5 73" stroke="#27A4FF" stroke-width="3.66667" stroke-linecap="round" stroke-linejoin="round"/>
<path d="M584 118C584.667 128.667 580.2 151.7 557 158.5" stroke="#27A4FF" stroke-width="3.66667" stroke-linecap="round" stroke-linejoin="round"/>
<path d="M502.5 162.5C492 162.833 469.9 156.9 465.5 130.5" stroke="#27A4FF" stroke-width="3.66667" stroke-linecap="round" stroke-linejoin="round"/>
<path d="M515.5 58C514.5 67.5 508.2 90.8 523 100C537.8 109.2 536.833 134.5 534.5 146" stroke="#27A4FF" stroke-width="3.66667" stroke-linecap="round" stroke-linejoin="round"/>
<path d="M475.5 112C488.333 115.5 517 118.8 529 104C541 89.2001 565 93.5001 575.5 97.5001" stroke="#27A4FF" stroke-width="3.66667" stroke-linecap="round" stroke-linejoin="round"/>
<path d="M200 496H147V486H200V496Z" stroke="white" stroke-width="2.35"/>
<path d="M357 497H304V487H357V497Z" stroke="white" stroke-width="2.35"/>
<path d="M150 486V300" stroke="white" stroke-width="2.35"/>
<path d="M307 487V301" stroke="white" stroke-width="2.35"/>
<path d="M307 92V3" stroke="white" stroke-width="2.35"/>
<path d="M192 486V300" stroke="white" stroke-width="2.35"/>
<path d="M349 487V301" stroke="white" stroke-width="2.35"/>
<path d="M349 92V2.5" stroke="white" stroke-width="2.35"/>
<path d="M154.5 485.5V300" stroke="white" stroke-width="2.35"/>
<path d="M311.5 486.5V301" stroke="white" stroke-width="2.35"/>
<path d="M311.5 91.5V3" stroke="white" stroke-width="2.35"/>
<path d="M196.5 485.5V300" stroke="white" stroke-width="2.35"/>
<path d="M353.5 486.5V301" stroke="white" stroke-width="2.35"/>
<path d="M353.5 91.5V2.5" stroke="white" stroke-width="2.35"/>
<path d="M155.5 300.5L190 320.5L156 336L190 352L156.5 368L189.368 384L156.5 400L189.368 416L156.5 432.5L190.5 448.5L156.5 464.5L189 482L184.5 485.5" stroke="white" stroke-width="2.35"/>
<path d="M312.5 301.5L347 321.5L313 337L347 353L313.5 369L346.368 385L313.5 401L346.368 417L313.5 433.5L347.5 449.5L313.5 465.5L346 483L341.5 486.5" stroke="white" stroke-width="2.35"/>
<path d="M313.5 6L346.368 22L313.5 38.5L347.5 54.5L313.5 70.5L346 88L341.5 91.5" stroke="white" stroke-width="2.35"/>
<path d="M357 7H303V4.5V2H357V4.5V7Z" fill="white" stroke="white" stroke-width="2.35"/>
</svg>
