<svg width="23" height="23" viewBox="0 0 23 23" fill="none" xmlns="http://www.w3.org/2000/svg">
<path d="M4.66448 16.9559C4.66448 17.3382 4.66448 17.5294 4.68154 17.6955C4.82309 19.0751 5.82081 20.2147 7.16957 20.5373C7.33202 20.5762 7.52154 20.6015 7.90043 20.652L15.0737 21.6084C17.1157 21.8807 18.1366 22.0168 18.929 21.7017C19.6247 21.4251 20.2042 20.9178 20.5704 20.2647C20.9874 19.5209 20.9874 18.4909 20.9874 16.4309V6.59903C20.9874 4.53904 20.9874 3.50904 20.5704 2.76523C20.2042 2.11218 19.6247 1.60484 18.929 1.32821C18.1366 1.01313 17.1157 1.14926 15.0737 1.42152L7.90043 2.37796C7.5215 2.42848 7.33203 2.45375 7.16957 2.49261C5.8208 2.81525 4.82309 3.95483 4.68153 5.3344C4.66448 5.50057 4.66448 5.69172 4.66448 6.074M11.1937 7.1622L15.5464 11.515M15.5464 11.515L11.1937 15.8678M15.5464 11.515H1.3999" stroke="white" stroke-width="2.17639" stroke-linecap="round" stroke-linejoin="round"/>
</svg>
