<svg width="36" height="36" viewBox="0 0 36 36" fill="none" xmlns="http://www.w3.org/2000/svg">
<path fill-rule="evenodd" clip-rule="evenodd" d="M30.3318 6.43784V6.43784C29.1573 5.26334 27.2748 5.20184 26.0253 6.29384L13.9698 16.8418C12.6633 17.9848 12.5973 19.9933 13.8243 21.2203L15.5478 22.9438C16.7748 24.1708 18.7848 24.1033 19.9263 22.7983L30.4743 10.7428C31.5678 9.49484 31.5048 7.61234 30.3318 6.43784V6.43784Z" stroke="#27A4FF" stroke-width="1.25289" stroke-linecap="round" stroke-linejoin="round"/>
<path d="M16.3047 14.8047L21.9747 20.4747" stroke="#27A4FF" stroke-width="1.25289" stroke-linecap="round" stroke-linejoin="round"/>
<path fill-rule="evenodd" clip-rule="evenodd" d="M5.39885 30.4842H10.9533C15.4308 30.4842 17.6733 25.0707 14.5068 21.9042V21.9042C12.1788 19.5762 8.22485 20.4327 7.06985 23.5152L4.78685 29.6022C4.62785 30.0297 4.94285 30.4842 5.39885 30.4842Z" stroke="#27A4FF" stroke-width="1.25289" stroke-linecap="round" stroke-linejoin="round"/>
</svg>
