<svg width="40" height="52" viewBox="0 0 40 52" fill="none" xmlns="http://www.w3.org/2000/svg">
<path d="M2.1748 29.5415L1.56804 28.5045C1.19972 28.7201 0.973364 29.1148 0.973364 29.5415H2.1748ZM26.0897 29.5415H27.2911V28.8542L26.6986 28.5058L26.0897 29.5415ZM14.161 22.528L14.7699 21.4923L14.1624 21.1352L13.5542 21.491L14.161 22.528ZM2.1748 43.5398H0.973364V44.2345L1.5755 44.5811L2.1748 43.5398ZM14.161 50.4383L13.5617 51.4796L14.1624 51.8253L14.7625 51.4783L14.161 50.4383ZM26.0897 43.5398L26.6911 44.5798L27.2911 44.2328V43.5398H26.0897ZM1.56804 30.5785L13.5542 37.592L14.7677 35.518L2.78157 28.5045L1.56804 30.5785ZM14.7699 37.5907L26.6986 30.5772L25.4807 28.5058L13.552 35.5193L14.7699 37.5907ZM26.6986 28.5058L14.7699 21.4923L13.552 23.5637L25.4807 30.5772L26.6986 28.5058ZM13.5542 21.491L1.56804 28.5045L2.78157 30.5785L14.7677 23.565L13.5542 21.491ZM0.973364 29.5415V43.5398H3.37625V29.5415H0.973364ZM1.5755 44.5811L13.5617 51.4796L14.7603 49.397L2.77411 42.4985L1.5755 44.5811ZM14.7625 51.4783L26.6911 44.5798L25.4882 42.4997L13.5595 49.3982L14.7625 51.4783ZM27.2911 43.5398V29.5415H24.8882V43.5398H27.2911ZM12.9595 36.555V50.4383H15.3624V36.555H12.9595Z" fill="white"/>
<path d="M14.1831 8.48298L13.5763 7.44601C13.208 7.66153 12.9817 8.05624 12.9817 8.48298H14.1831ZM38.098 8.48298H39.2994V7.79565L38.7069 7.44729L38.098 8.48298ZM26.1693 1.46948L26.7782 0.433791L26.1707 0.0766245L25.5625 0.432516L26.1693 1.46948ZM14.1831 22.4812H12.9817V23.176L13.5838 23.5225L14.1831 22.4812ZM26.1693 29.3797L25.57 30.421L26.1707 30.7668L26.7708 30.4198L26.1693 29.3797ZM38.098 22.4812L38.6994 23.5213L39.2994 23.1743V22.4812H38.098ZM13.5763 9.51995L25.5625 16.5334L26.776 14.4595L14.7899 7.44601L13.5763 9.51995ZM26.7782 16.5322L38.7069 9.51867L37.489 7.44729L25.5603 14.4608L26.7782 16.5322ZM38.7069 7.44729L26.7782 0.433791L25.5603 2.50517L37.489 9.51867L38.7069 7.44729ZM25.5625 0.432516L13.5763 7.44601L14.7899 9.51995L26.776 2.50645L25.5625 0.432516ZM12.9817 8.48298V22.4812H15.3845V8.48298H12.9817ZM13.5838 23.5225L25.57 30.421L26.7686 28.3385L14.7824 21.4399L13.5838 23.5225ZM26.7708 30.4198L38.6994 23.5213L37.4965 21.4412L25.5678 28.3397L26.7708 30.4198ZM39.2994 22.4812V8.48298H36.8965V22.4812H39.2994ZM24.9678 15.4965V29.3797H27.3707V15.4965H24.9678Z" fill="white"/>
<path d="M3.97803 29.6021L13.8605 23.3985L24.0315 29.602L14.1915 35.5979L3.97803 29.6021Z" fill="white"/>
<path d="M26.8451 15.7522L37.6653 9.98138V15.7522V22.1722C37.6653 22.1722 26.7729 28.0151 26.8451 27.6544C26.9172 27.2937 26.8451 15.7522 26.8451 15.7522Z" fill="white"/>
</svg>
